<svg width="30" height="30" viewBox="0 0 30 30" fill="none" xmlns="http://www.w3.org/2000/svg">
<path d="M28.2791 22.4027L22.401 18.4827C21.6551 17.9892 20.6552 18.1516 20.1037 18.8558L18.3915 21.0573C18.1715 21.3474 17.7715 21.4316 17.4532 21.2547L17.1275 21.0752C16.0478 20.4867 14.7044 19.754 11.9976 17.0463C9.29092 14.3386 8.55677 12.9942 7.96827 11.9165L7.78968 11.5908C7.61041 11.2725 7.69298 10.8708 7.98324 10.649L10.1832 8.93733C10.8871 8.3858 11.0497 7.38619 10.5569 6.64002L6.63688 0.761993C6.13174 0.00215844 5.11829 -0.225939 4.33628 0.244151L1.8783 1.72066C1.10599 2.1747 0.539375 2.91004 0.297269 3.77258C-0.587844 6.99759 0.0780178 12.5635 8.27707 20.7635C14.7992 27.2851 19.6547 29.039 22.992 29.039C23.76 29.0423 24.5251 28.9423 25.2666 28.7419C26.1293 28.5 26.8647 27.9334 27.3185 27.1608L28.7965 24.7043C29.2672 23.9221 29.0392 22.9081 28.2791 22.4027ZM27.9626 24.2078L26.488 26.6657C26.1622 27.2233 25.6332 27.6333 25.0119 27.8098C22.0347 28.6272 16.8332 27.9502 8.96181 20.0787C1.09039 12.2073 0.413416 7.00633 1.23081 4.02864C1.40753 3.40661 1.81802 2.87697 2.37629 2.55065L4.83427 1.07607C5.17358 0.871902 5.61345 0.970865 5.83264 1.30059L7.96203 4.49754L9.74927 7.17811C9.9633 7.50177 9.89298 7.93556 9.58764 8.17506L7.38713 9.88676C6.71747 10.3988 6.52624 11.3253 6.93854 12.0607L7.11327 12.3781C7.73177 13.5125 8.50074 14.9237 11.3081 17.7306C14.1155 20.5375 15.5262 21.3065 16.6601 21.925L16.978 22.1001C17.7133 22.5124 18.6399 22.3212 19.1519 21.6516L20.8636 19.451C21.1032 19.1459 21.5368 19.0756 21.8606 19.2894L27.7381 23.2094C28.068 23.4284 28.167 23.8685 27.9626 24.2078Z" fill="#00ADEF"/>
<path d="M16.4568 4.84188C20.9984 4.84693 24.6788 8.5274 24.6839 13.069C24.6839 13.3363 24.9006 13.5529 25.1679 13.5529C25.4352 13.5529 25.6518 13.3363 25.6518 13.069C25.6462 7.99306 21.5328 3.87958 16.4568 3.87402C16.1895 3.87402 15.9729 4.09067 15.9729 4.35795C15.9729 4.62524 16.1895 4.84188 16.4568 4.84188Z" fill="#00ADEF"/>
<path d="M16.4568 7.74557C19.3954 7.74903 21.7768 10.1304 21.7803 13.069C21.7803 13.3363 21.997 13.5529 22.2642 13.5529C22.5315 13.5529 22.7481 13.3363 22.7481 13.069C22.7441 9.59604 19.9297 6.78168 16.4568 6.77771C16.1895 6.77771 15.9729 6.99435 15.9729 7.26164C15.9729 7.52892 16.1895 7.74557 16.4568 7.74557Z" fill="#00ADEF"/>
<path d="M16.4568 10.6492C17.7925 10.6508 18.8749 11.7332 18.8766 13.069C18.8766 13.3363 19.0933 13.5529 19.3605 13.5529C19.6277 13.5529 19.8444 13.3363 19.8444 13.069C19.8423 11.199 18.3269 9.68348 16.4568 9.68138C16.1895 9.68138 15.9729 9.89802 15.9729 10.1653C15.9729 10.4326 16.1895 10.6492 16.4568 10.6492Z" fill="#00ADEF"/>
</svg>
