<svg width="29" height="23" viewBox="0 0 29 23" fill="none" xmlns="http://www.w3.org/2000/svg">
<path d="M27.2263 0.491556C26.9941 0.419679 26.7476 0.383316 26.4867 0.383316H2.51331C2.25231 0.383316 2.00587 0.419679 1.77364 0.491556C0.74001 0.80291 0 1.75311 0 2.89669V20.1034C0 20.7988 0.273857 21.4226 0.720752 21.8749C0.736441 21.8982 0.753604 21.9203 0.773314 21.94C0.898773 22.0529 1.03414 22.1525 1.1766 22.2385C1.53094 22.4588 1.94566 22.5933 2.39346 22.6137C2.43339 22.6156 2.47333 22.6166 2.51326 22.6166H26.4866C26.5265 22.6166 26.5665 22.6156 26.6064 22.6137C27.9511 22.5525 29 21.4648 29 20.1033V2.89669C29 1.75311 28.2599 0.80291 27.2263 0.491556ZM17.3581 11.9289L27.844 2.14212C27.9649 2.36387 28.0334 2.62045 28.0334 2.89663V20.1033C28.0334 20.4106 27.9486 20.6936 27.801 20.9314L17.3581 11.9289ZM26.4867 1.35C26.5151 1.35 26.5428 1.35079 26.5699 1.35215C26.5834 1.35283 26.5967 1.35408 26.6102 1.3551C26.6247 1.35618 26.6394 1.35708 26.6537 1.35861C26.6607 1.35935 26.6675 1.36037 26.6744 1.36116C26.8336 1.38036 26.9744 1.42471 27.115 1.49506L16.4693 11.4494C16.4065 11.4717 16.3453 11.5057 16.2884 11.5484L15.9017 11.8867C15.08 12.66 13.8234 12.66 13.0017 11.8867L12.9494 11.841L1.885 1.495C2.02558 1.42471 2.16645 1.3803 2.32561 1.3611C2.33252 1.36031 2.33931 1.35929 2.34628 1.35855C2.36055 1.35702 2.37528 1.35618 2.38989 1.35504C2.40332 1.35402 2.41663 1.35278 2.43017 1.3521C2.4573 1.35074 2.48494 1.34995 2.51337 1.34995H26.4867V1.35ZM1.1664 20.8762C1.03913 20.6502 0.966686 20.3872 0.966686 20.1033V2.89669C0.966686 2.62051 1.03511 2.36393 1.15604 2.14218L11.5955 11.8857L1.1664 20.8762ZM2.51331 21.65C2.35653 21.65 2.19975 21.6181 2.04291 21.5803C2.00887 21.5699 1.97551 21.558 1.9426 21.5454L12.3464 12.5866L12.3734 12.6117C12.5725 12.7802 12.7814 12.9243 12.9985 13.0427C14.1403 13.6971 15.6437 13.5537 16.6267 12.6117L16.6769 12.565L27.0575 21.5454C27.0245 21.558 26.9912 21.5699 26.9571 21.5804C26.8004 21.6182 26.6436 21.6501 26.4867 21.6501H2.51331V21.65Z" fill="#00ADEF"/>
</svg>
