<svg width="51" height="51" viewBox="0 0 51 51" fill="none" xmlns="http://www.w3.org/2000/svg">
<path d="M35.8068 0H15.1932C6.81562 0 0 6.81562 0 15.1932V35.8068C0 44.1844 6.81562 51 15.1932 51H35.8068C44.1844 51 51 44.1844 51 35.8068V15.1932C50.9999 6.81562 44.1843 0 35.8068 0ZM45.8694 35.8068C45.8694 41.3642 41.3642 45.8694 35.8068 45.8694H15.1932C9.63581 45.8694 5.1306 41.3642 5.1306 35.8068V15.1932C5.1306 9.63572 9.63581 5.1306 15.1932 5.1306H35.8068C41.3642 5.1306 45.8694 9.63572 45.8694 15.1932V35.8068Z" fill="#00ADEF"/>
<path d="M25.5 12.3096C18.2268 12.3096 12.3096 18.2268 12.3096 25.4999C12.3096 32.773 18.2268 38.6903 25.5 38.6903C32.7732 38.6903 38.6904 32.7731 38.6904 25.4999C38.6904 18.2267 32.7732 12.3096 25.5 12.3096ZM25.5 33.5598C21.0486 33.5598 17.4402 29.9513 17.4402 25.5C17.4402 21.0486 21.0487 17.4402 25.5 17.4402C29.9513 17.4402 33.5598 21.0486 33.5598 25.5C33.5598 29.9512 29.9512 33.5598 25.5 33.5598Z" fill="#00ADEF"/>
<path d="M38.7159 15.5693C40.4615 15.5693 41.8766 14.1542 41.8766 12.4086C41.8766 10.663 40.4615 9.24792 38.7159 9.24792C36.9703 9.24792 35.5552 10.663 35.5552 12.4086C35.5552 14.1542 36.9703 15.5693 38.7159 15.5693Z" fill="#00ADEF"/>
</svg>
