<svg width="21" height="29" viewBox="0 0 21 29" fill="none" xmlns="http://www.w3.org/2000/svg">
<path d="M10.2504 7.1076C8.2066 7.1076 6.54309 8.77112 6.54309 10.8149C6.54309 12.8587 8.2066 14.5222 10.2504 14.5222C12.2942 14.5222 13.9577 12.8587 13.9577 10.8149C13.9577 8.77112 12.2942 7.1076 10.2504 7.1076ZM10.2504 13.463C8.79024 13.463 7.60232 12.275 7.60232 10.8149C7.60232 9.35475 8.79024 8.16683 10.2504 8.16683C11.7105 8.16683 12.8984 9.35475 12.8984 10.8149C12.8984 12.275 11.7105 13.463 10.2504 13.463Z" fill="#00ADEF"/>
<path d="M17.3382 2.97483C15.4199 1.05658 12.8693 0 10.1566 0C7.44341 0 4.89333 1.05658 2.97507 2.97483C-0.574922 6.5243 -1.01609 13.2027 2.01965 17.249L10.1566 29L18.2814 17.2654C21.3293 13.2027 20.8882 6.5243 17.3382 2.97483ZM17.4224 16.6463L10.1566 27.1389L2.87921 16.6298C0.125756 12.9586 0.520317 6.92733 3.72447 3.72371C5.44254 2.00564 7.72676 1.05923 10.1566 1.05923C12.5865 1.05923 14.8707 2.00564 16.5893 3.72371C19.7935 6.92733 20.188 12.9586 17.4224 16.6463Z" fill="#00ADEF"/>
</svg>
