<svg width="29" height="23" fill="none" xmlns="http://www.w3.org/2000/svg"><path d="M27.226.492a2.487 2.487 0 00-.74-.109H2.514c-.26 0-.507.037-.74.109A2.493 2.493 0 000 2.897v17.206c0 .696.274 1.32.72 1.772a.434.434 0 00.053.065c.126.113.261.212.404.298a2.513 2.513 0 001.336.379h23.974l.12-.003A2.495 2.495 0 0029 20.104V2.896c0-1.144-.74-2.094-1.774-2.405zm-9.868 11.437l10.486-9.787c.12.222.19.478.19.755v17.206c0 .308-.085.59-.233.828L17.358 11.93zM26.487 1.35c.028 0 .056 0 .083.002l.04.003.044.004.02.002c.16.02.3.064.441.134L16.469 11.45a.688.688 0 00-.18.1l-.387.338a2.103 2.103 0 01-2.9 0l-.053-.046L1.885 1.495c.14-.07.281-.115.44-.134l.021-.002.044-.004.04-.003.083-.002h23.974zM1.167 20.876a1.568 1.568 0 01-.2-.773V2.897c0-.276.068-.533.189-.755l10.44 9.744-10.43 8.99zm1.346.774c-.156 0-.313-.032-.47-.07a1.536 1.536 0 01-.1-.035l10.403-8.958.027.025c.2.168.408.312.626.43 1.141.655 2.645.512 3.628-.43l.05-.047 10.38 8.98a1.607 1.607 0 01-.1.035 2.01 2.01 0 01-.47.07H2.513z" fill="#00ADEF"/></svg>