<svg width="30" height="30" fill="none" xmlns="http://www.w3.org/2000/svg"><path d="M28.28 22.403l-5.879-3.92a1.716 1.716 0 00-2.297.373l-1.712 2.201a.732.732 0 01-.939.198l-.325-.18c-1.08-.588-2.424-1.321-5.13-4.029-2.707-2.707-3.441-4.052-4.03-5.13l-.178-.325a.733.733 0 01.193-.942l2.2-1.712a1.717 1.717 0 00.374-2.297L6.637.762a1.707 1.707 0 00-2.3-.518l-2.46 1.477a3.467 3.467 0 00-1.58 2.052c-.886 3.225-.22 8.79 7.98 16.99 6.521 6.522 11.377 8.276 14.714 8.276a8.577 8.577 0 002.275-.297 3.464 3.464 0 002.052-1.581l1.478-2.457a1.707 1.707 0 00-.518-2.301zm-.317 1.805l-1.475 2.458a2.501 2.501 0 01-1.476 1.144c-2.977.817-8.179.14-16.05-7.731C1.09 12.207.413 7.006 1.23 4.029A2.505 2.505 0 012.376 2.55l2.458-1.475a.74.74 0 01.999.225l2.129 3.197 1.787 2.68a.745.745 0 01-.161.997l-2.2 1.712a1.694 1.694 0 00-.45 2.174l.175.317c.619 1.134 1.388 2.546 4.195 5.353 2.808 2.806 4.218 3.575 5.352 4.194l.318.175a1.694 1.694 0 002.174-.448l1.712-2.201a.745.745 0 01.997-.162l5.877 3.92a.74.74 0 01.225.999zM16.457 4.842a8.236 8.236 0 018.227 8.227.484.484 0 00.968 0 9.205 9.205 0 00-9.195-9.195.484.484 0 100 .968z" fill="#00ADEF"/><path d="M16.457 7.746a5.33 5.33 0 015.323 5.323.484.484 0 00.968 0 6.299 6.299 0 00-6.291-6.291.484.484 0 100 .968z" fill="#00ADEF"/><path d="M16.457 10.65a2.423 2.423 0 012.42 2.419.484.484 0 00.967 0 3.391 3.391 0 00-3.387-3.388.484.484 0 100 .968z" fill="#00ADEF"/></svg>