<svg width="50" height="50" fill="none" xmlns="http://www.w3.org/2000/svg"><path d="M43.262 0H6.738A6.738 6.738 0 000 6.738v36.524A6.738 6.738 0 006.738 50H24.75l.031-17.867H20.14a1.095 1.095 0 01-1.095-1.092l-.022-5.759a1.095 1.095 0 011.095-1.1h4.634v-5.564c0-6.458 3.944-9.975 9.705-9.975h4.727c.605 0 1.096.49 1.096 1.095v4.857c0 .604-.49 1.095-1.095 1.095l-2.901.001c-3.133 0-3.74 1.49-3.74 3.674v4.818h6.884c.656 0 1.165.573 1.088 1.224l-.683 5.76a1.095 1.095 0 01-1.087.966h-6.171L32.544 50h10.719A6.738 6.738 0 0050 43.263V6.738A6.738 6.738 0 0043.262 0z" fill="#00ADEF"/></svg>