<svg width="51" height="51" fill="none" xmlns="http://www.w3.org/2000/svg"><path d="M35.807 0H15.193C6.816 0 0 6.816 0 15.193v20.614C0 44.184 6.816 51 15.193 51h20.614C44.184 51 51 44.184 51 35.807V15.193C51 6.816 44.184 0 35.807 0zm10.062 35.807c0 5.557-4.505 10.062-10.062 10.062H15.193c-5.557 0-10.062-4.505-10.062-10.062V15.193c0-5.557 4.505-10.062 10.062-10.062h20.614c5.557 0 10.062 4.505 10.062 10.062v20.614z" fill="#00ADEF"/><path d="M25.5 12.31c-7.273 0-13.19 5.917-13.19 13.19s5.917 13.19 13.19 13.19 13.19-5.917 13.19-13.19-5.917-13.19-13.19-13.19zm0 21.25a8.06 8.06 0 110-16.12 8.06 8.06 0 010 16.12zm13.216-17.99a3.16 3.16 0 100-6.322 3.16 3.16 0 000 6.321z" fill="#00ADEF"/></svg>