<svg width="21" height="29" fill="none" xmlns="http://www.w3.org/2000/svg"><path d="M10.25 7.108a3.712 3.712 0 00-3.707 3.707 3.712 3.712 0 003.707 3.707 3.712 3.712 0 003.708-3.707 3.712 3.712 0 00-3.708-3.707zm0 6.355a2.651 2.651 0 01-2.648-2.648 2.651 2.651 0 012.648-2.648 2.651 2.651 0 012.648 2.648 2.651 2.651 0 01-2.648 2.648z" fill="#00ADEF"/><path d="M17.338 2.975A10.09 10.09 0 0010.157 0a10.09 10.09 0 00-7.182 2.975c-3.55 3.55-3.991 10.228-.955 14.274L10.157 29l8.124-11.735c3.048-4.062 2.607-10.74-.943-14.29zm.084 13.671L10.157 27.14 2.879 16.63C.126 12.96.52 6.928 3.724 3.725a9.037 9.037 0 016.433-2.665c2.43 0 4.714.947 6.432 2.665 3.205 3.203 3.599 9.235.833 12.922z" fill="#00ADEF"/></svg>